<svg xmlns="http://www.w3.org/2000/svg" width="1000.181" height="627.935" viewBox="0 0 1000.181 627.935"><g transform="translate(0 0)"><path d="M951.351,498.743,725.965,637.565H258.234L140.39,446.238,704.864,98.565Z" transform="translate(-16.129 -11.324)" fill="#e6e6e6"/><path d="M910.194,548.23l-.405,12.288L906.547,586.8,895.6,588.508l-2.837-10.582V564.273s6.079-9.558,4.458-16.043S910.194,548.23,910.194,548.23Z" transform="translate(-133.544 -146.988)" fill="#fbbebe"/><circle cx="13.404" cy="13.404" r="13.404" transform="translate(761.237 375.488)" fill="#2f2e41"/><path d="M837.622,665.95l.81,16.616,8.916-2.431-.81-13.374Z" transform="translate(-96.23 -76.507)" fill="#fbbebe"/><path d="M905.844,663.961l4.256,17.223,7.294-1.621-3.849-16.819Z" transform="translate(-104.067 -76.139)" fill="#fbbebe"/><path d="M859.31,649.513l-1.621,5.269s-4.863,14.184,0,14.995,6.079-12.969,6.079-12.969l2.837-4.863Z" transform="translate(-129.266 -158.955)" fill="#fbbebe"/><path d="M829.86,537.289l-6.89,15.805,10.433,4.6,5.778-20.4Z" transform="translate(-94.546 -61.726)" fill="#575a89"/><path d="M879.686,521.405l12.969,67.275,15.4,59.169L887.386,651.5l-26.342-86.728-13.374,87.538-17.831-2.026,4.457-92,9.727-39.312Z" transform="translate(-95.335 -59.622)" fill="#2f2e41"/><path d="M882.05,778.211c.811,0,4.863,4.458,3.647,9.321a72,72,0,0,0-1.621,10.537s-14.792,5.066-22.492.2,7.9-10.334,7.9-10.334L870.3,777.4l11.753-2.432Z" transform="translate(-129.716 -173.368)" fill="#2f2e41"/><path d="M952.333,778.211c.81,0,4.863,4.458,3.647,9.321a72,72,0,0,0-1.621,10.537s-14.792,5.066-22.493.2,7.9-10.334,7.9-10.334l.81-10.537,11.753-2.432Z" transform="translate(-137.791 -173.368)" fill="#2f2e41"/><circle cx="10.942" cy="10.942" r="10.942" transform="translate(759.629 381.136)" fill="#fbbebe"/><path d="M899.363,580.865l8.105-27.964,2.837,1.621,15.805,39.716-7.295,19.453s-35.664-2.432-35.664-2.837,3.647-47.011,3.647-47.011l7.077-8.186.218,5.754Z" transform="translate(-132.439 -147.856)" fill="#575a89"/><path d="M932.478,555.723s-.405-3.647-3.242-2.837-17.333-.117-17.333-.117-4.146,4.981,1.122,15.112,11.145,80.04,11.145,80.04l18.845-4.661-9.726-63.222Z" transform="translate(-135.564 -147.841)" fill="#2f2e41"/><path d="M859.64,458.306l-19.25,15.6,1.215,27.154L833.5,556.179l10.536,2.431,15-97.669Z" transform="translate(-95.756 -52.652)" fill="#2f2e41"/><path d="M931.895,600.063l-8.916,2.837s-6.484,13.374-2.026,14.995,6.275-10.114,6.275-10.114l8.315-2.855Z" transform="translate(-136.602 -153.274)" fill="#fbbebe"/><path d="M877.3,570.584l-.417-1.351-2.014,1.351a32.824,32.824,0,0,0-4.053,11.347c-.81,6.079-6.889,45.8-6.889,45.8l12.158-1.216Z" transform="translate(-130.23 -149.732)" fill="#2f2e41"/><path d="M910.466,498.828l-13.779,4.863,4.458,8.916,16.211-6.889Z" transform="translate(-103.015 -57.308)" fill="#575a89"/><path d="M930.313,555.191c.405,0,40.122,23.1,35.664,32.421A24.524,24.524,0,0,1,952.6,599.77l-9.726-10.132,4.863-3.647-14.995-9.726Z" transform="translate(-137.857 -148.119)" fill="#2f2e41"/><path d="M919.559,527.812a7.7,7.7,0,0,0-3.628-6.264c1.115-2.24,2.112-4.8,1.377-7.189a5.486,5.486,0,0,0-4.133-3.7,10.767,10.767,0,0,0-3.211.042l-5.008.568a10.936,10.936,0,0,0-4.693,1.264,5.437,5.437,0,0,0-.628,8.726c-3.5,2.8-5.845,4.93-7.439,9.124A15.063,15.063,0,0,1,901.658,527a9.019,9.019,0,0,1,9.476,8.264,16.685,16.685,0,0,0,.308,3.5,2.574,2.574,0,0,0,2.529,2.012c-.161.023-1.154-2.958-.455-4.334l.011-.022a1.309,1.309,0,0,1,.712-.611,2.049,2.049,0,0,1,2.724,1.425c.389,1.493,1.011,3.4,1.554,2.892.712-.662.412-6.5.6-7.407A17,17,0,0,0,919.559,527.812Z" transform="translate(-133.478 -142.991)" fill="#2f2e41"/><path d="M916.837,522.9s-11.014.718-16.281-.239" transform="translate(-134.439 -144.381)" fill="#d0cde1"/><path d="M918.174,519.98c1.115-2.24,2.112-4.8,1.377-7.189a5.43,5.43,0,0,0-1.921-2.7,5.5,5.5,0,0,1,2.937,3.31c.735,2.392-.262,4.949-1.377,7.189C918.305,520.458,920.4,521.165,918.174,519.98Z" transform="translate(-136.4 -142.937)" fill="#2f2e41"/><path d="M132.849,675.763l16.375-16.047a92.235,92.235,0,0,1-18.694-6.877,92.8,92.8,0,1,1,133.98-83.157q0,2.974-.195,5.913a93.285,93.285,0,0,1-1.407,11.32,87.661,87.661,0,0,1-3.346,16.985c-7.338,24.606-24.65,47.362-42.972,65.047L171.342,712.62H213.1a52.671,52.671,0,0,1,52.664,52.656l-170.526.009A125.33,125.33,0,0,1,129.9,678.761Q131.338,677.239,132.849,675.763Z" transform="translate(-40.044 -139.122)" fill="#6c63ff"/><path d="M244.792,514.861,204.9,537.892l-79.315,45.8-39.9,23.04a92.209,92.209,0,0,1-5.824-22.2l46.6-26.908L181.9,525.616l46.584-26.908A92.638,92.638,0,0,1,244.792,514.861Z" transform="translate(-40.154 -141.63)" fill="#3f3d56"/><path d="M270.933,588.407a93.287,93.287,0,0,1-1.407,11.321,87.657,87.657,0,0,1-3.346,16.985L136.51,691.576q1.447-1.527,2.956-3l16.375-16.047a92.227,92.227,0,0,1-18.694-6.877Z" transform="translate(-46.662 -151.935)" fill="#3f3d56"/><circle cx="47.647" cy="47.647" r="47.647" transform="translate(84.032 382.911)" fill="#fff"/><path d="M555.762,685.513a92.79,92.79,0,0,1-185.37,6.222c-.142-2.053-.212-4.133-.212-6.222a92.8,92.8,0,0,1,182.343-24.358v.009a92.093,92.093,0,0,1,3.231,23.686v.009C555.762,685.079,555.762,685.292,555.762,685.513Z" transform="translate(-73.507 -152.429)" fill="#6c63ff"/><path d="M514.657,608.984l-50.983,29.43L421.34,662.861l-50.947,29.412c-.142-2.053-.212-4.133-.212-6.222a92.882,92.882,0,0,1,2.284-20.535L490.449,597.4a92.483,92.483,0,0,1,24.208,11.586Z" transform="translate(-73.507 -152.968)" fill="#3f3d56"/><path d="M559.252,693.734v.009l-58.559,33.8-.018.009-22.632,13.073L419.5,774.43a92.422,92.422,0,0,1-18.871-14.666L442.5,735.582l71.615-41.344,41.9-24.19A92.09,92.09,0,0,1,559.252,693.734Z" transform="translate(-77.005 -161.314)" fill="#3f3d56"/><circle cx="47.647" cy="47.647" r="47.647" transform="translate(341.817 485.435)" fill="#fff"/><path d="M710.152,663.411l1.815-1.779a92.711,92.711,0,0,1-70.119-84.484q-.173-2.748-.168-5.55a92.781,92.781,0,1,1,185.558-1.345c.016.451.016.894.016,1.345a93.663,93.663,0,0,1-1.6,17.214,81.612,81.612,0,0,1-1.269,8.64v.009c-5.541,27.793-24.668,53.727-45.052,73.4l-45.247,43.672h41.76a52.671,52.671,0,0,1,52.664,52.656l-170.535.009a125.336,125.336,0,0,1,37.614-89.518Z" transform="translate(-104.698 -139.267)" fill="#6c63ff"/><path d="M803.395,511.533,646.207,602.284a91.957,91.957,0,0,1-4.337-23.057l143.743-82.988a92.92,92.92,0,0,1,17.782,15.295Z" transform="translate(-104.72 -141.346)" fill="#3f3d56"/><path d="M833.123,583.553a93.647,93.647,0,0,1-1.6,17.214,81.63,81.63,0,0,1-1.269,8.64v.009l-114.233,65.95,1.814-1.779a92.2,92.2,0,0,1-25.067-10.356l140.335-81.023C833.123,582.659,833.123,583.1,833.123,583.553Z" transform="translate(-110.567 -151.223)" fill="#3f3d56"/><circle cx="47.647" cy="47.647" r="47.647" transform="translate(582.12 384.681)" fill="#fff"/><path d="M1126.913,687.84c0,.655-.009,1.319-.018,1.974a92.786,92.786,0,0,1-185.139,6.753c-.283-2.877-.416-5.78-.416-8.727a92.787,92.787,0,1,1,185.573,0Z" transform="translate(-139.124 -152.695)" fill="#6c63ff"/><path d="M1087.88,612.862,941.756,697.232c-.283-2.877-.416-5.78-.416-8.727a91.878,91.878,0,0,1,1.673-17.561l121.482-70.137a92.327,92.327,0,0,1,23.385,12.055Z" transform="translate(-139.124 -153.359)" fill="#3f3d56"/><path d="M1130.628,697.022c0,.655-.009,1.319-.018,1.974L993.151,778.355a92.655,92.655,0,0,1-19.481-14.312l154.311-89.1A92.544,92.544,0,0,1,1130.628,697.022Z" transform="translate(-142.838 -161.877)" fill="#3f3d56"/><circle cx="47.647" cy="47.647" r="47.647" transform="translate(847.355 487.5)" fill="#fff"/><path d="M361.119,665v7.869s-56.328-4.142-59.227-8.7,3.728-34.791,3.728-34.791l48.873,9.526Z" transform="translate(-65.577 -156.642)" fill="#2f2e41"/><path d="M361.119,665v7.869s-56.328-4.142-59.227-8.7,3.728-34.791,3.728-34.791l48.873,9.526Z" transform="translate(-65.577 -156.642)" opacity="0.3"/><path d="M310.808,694.306l30.649,43.075,4.142,2.9-12.011,17.81-37.69-43.9s-11.183-10.769-5.8-16.981S310.808,694.306,310.808,694.306Z" transform="translate(-64.138 -164)" fill="#2f2e41"/><path d="M348.318,746.281s6.213-2.485,9.94,2.485l-5.384,12.425s-13.254,20.295-18.638,19.88-4.142-8.284-2.485-9.112,5.766-8.871,5.766-8.871Z" transform="translate(-68.929 -170.001)" fill="#2f2e41"/><path d="M338.393,781.033l.024,12.387a11.489,11.489,0,0,1-13.668,6.213c-9.94-2.485-1.657-10.354-1.657-10.354l2.485-6.627Z" transform="translate(-67.726 -174.064)" fill="#2f2e41"/><circle cx="12.425" cy="12.425" r="12.425" transform="translate(261.373 366.5)" fill="#a0616a"/><path d="M296.613,427.874l-2.485,16.153,11.6,16.567,8.284-25.265Z" transform="translate(-33.791 -49.156)" fill="#a0616a"/><path d="M297.83,450.637l11.162-4.763,1.677,81.385-34.791-2.485,12.011-77.865,4.684-4.763Z" transform="translate(-31.694 -50.796)" fill="#575a89"/><path d="M336.146,553.6l.309-3.109,3.419.624,7.678-11.737,6.4,3.453,17.4,11.183-7.455,47.63v32.72s9.112,16.981,1.657,28.164L355.2,640.99s-19.466-33.548-19.052-43.9S336.146,553.6,336.146,553.6Z" transform="translate(-69.596 -146.302)" fill="#2f2e41"/><path d="M323.853,548.7l1.919-12.266-3.99,2.74-18.638,8.7L294.033,659.7l21.951,7.869S330.48,558.645,323.853,548.7Z" transform="translate(-64.759 -145.964)" fill="#2f2e41"/><path d="M306.857,627.506l40.589,1.657s3.728,22.366.828,40.175-13.668,96.918-13.668,96.918H320.524l5.384-62.955-1.657-38.1-12.01,23.194-21.951,1.243Z" transform="translate(-64.329 -156.427)" fill="#2f2e41"/><path d="M347.37,498.869c.966-.156,2.033-.6,2.852-.07a3.782,3.782,0,0,1,.987,1.315c.948,1.547,2.608,2.48,4.106,3.5s2.992,2.365,3.264,4.159c.234,1.545-.5,3.075-.52,4.638-.028,1.976,1.044,4.118.032,5.816-.463.776-1.286,1.276-1.792,2.025-.894,1.322-.89,3.452-2.4,3.974a31.052,31.052,0,0,0-.317-5.646,3.689,3.689,0,0,0-.48-1.535c-.675-1.008-2.057-1.161-3.243-1.418a11.15,11.15,0,0,1-7.272-5.381c.759.9-.1,2.418-1.258,2.636a3.842,3.842,0,0,1-3.158-1.257,7.564,7.564,0,0,1-5.216,10.35,4.1,4.1,0,0,0-1.685-3.648c-1.2-.846-2.908-1.1-3.621-2.378a4.491,4.491,0,0,1-.012-3.256l1.015-4.031a6.2,6.2,0,0,1,3.34-4.969l3.043-1.947a10.943,10.943,0,0,1,3.119-1.57c1-.25,2.005.059,2.981-.209.807-.221,1.462-.8,2.3-.984C344.732,498.7,346.067,499.08,347.37,498.869Z" transform="translate(-68.585 -141.611)" fill="#2f2e41"/><path d="M301.487,640.141s7.041,18.224-.414,19.052-7.041-16.153-7.041-16.153Z" transform="translate(-64.758 -157.878)" fill="#a0616a"/><path d="M271.588,454.362l-1.993-1.416-2.149.589-11.183,41.831-3.314,45.56,15.325-6.213-.828-32.306Z" transform="translate(-29.06 -52.036)" fill="#2f2e41"/><path d="M322.754,552.3l-4.556,4.97-2.027-8.925Z" transform="translate(-36.323 -62.996)" fill="#a0616a"/><path d="M369.13,556.191l2.1-1.46,1.626.631s14.082,40.589,11.183,50.53-24.851,36.448-24.851,36.448l-9.94-10.769,18.638-27.75-5.8-6.627Z" transform="translate(-71.102 -148.066)" fill="#2f2e41"/><path d="M294.109,630.382l-1.921,22.456,1.921-31.675,1.039,1.46Z" transform="translate(-33.568 -71.362)" opacity="0.3"/><path d="M310.748,645.1,305.8,681.08l6.858-33.794Z" transform="translate(-35.132 -74.112)" opacity="0.3"/><rect width="1000.181" height="1.77" transform="translate(0 625.356)" fill="#3f3d56"/><circle cx="23.898" cy="23.898" r="23.898" transform="translate(506.286 505.866)" fill="#3f3d56"/><path d="M912.307,214.571s-32.714,14.776-38.988,28.416S912.307,214.571,912.307,214.571Z" transform="translate(-131.241 -108.987)" fill="#e6e6e6"/><path d="M911.395,197.744s-30.147-4.064-39.293,2.881S911.395,197.744,911.395,197.744Z" transform="translate(-131.038 -106.918)" fill="#e6e6e6"/><path d="M924.826,183.183s-15.164-47.749-11.49-52.475S924.826,183.183,924.826,183.183Z" transform="translate(-135.841 -99.32)" fill="#e6e6e6"/><path d="M932.867,195.629s8.139-48.264,16.666-48.264S932.867,195.629,932.867,195.629Z" transform="translate(-138.151 -101.266)" fill="#e6e6e6"/><path d="M938.264,200.171s27.982-23.189,85.312-16.111S938.264,200.171,938.264,200.171Z" transform="translate(-138.771 -105.327)" fill="#e6e6e6"/><path d="M958.313,205.5s49.015-.858,51.769,6.006S958.313,205.5,958.313,205.5Z" transform="translate(-141.074 -107.941)" fill="#e6e6e6"/><path d="M947.517,213.56s29.605,17.945,23.82,23.466S947.517,213.56,947.517,213.56Z" transform="translate(-139.834 -108.871)" fill="#e6e6e6"/><path d="M1003.04,237.829s24.57,13.425,19.11,22.376S1003.04,237.829,1003.04,237.829Z" transform="translate(-146.213 -111.659)" fill="#e6e6e6"/><path d="M951.373,225.694s51.187,73.392,46.41,77.867S951.373,225.694,951.373,225.694Z" transform="translate(-140.277 -110.265)" fill="#e6e6e6"/><path d="M940.578,219.627s21.551,47.07,17.153,51.647S940.578,219.627,940.578,219.627Z" transform="translate(-139.037 -109.568)" fill="#e6e6e6"/><path d="M928.8,217.6s-19.4,75.055-7.494,74.281S928.8,217.6,928.8,217.6Z" transform="translate(-136.379 -109.335)" fill="#e6e6e6"/><path d="M918.844,221.82s-32.558,48.835-29.579,53.978S918.844,221.82,918.844,221.82Z" transform="translate(-133.12 -109.82)" fill="#e6e6e6"/><path d="M903.9,179.475s-28.385-43.971-54.634-39.709S903.9,179.475,903.9,179.475Z" transform="translate(-127.944 -100.36)" fill="#e6e6e6"/><path d="M882.066,181.11s-37.537-3.58-34.807,5.37S882.066,181.11,882.066,181.11Z" transform="translate(-128.299 -105.062)" fill="#e6e6e6"/><path d="M896.587,142.46s-2.047-12.53-5.46-9.845S896.587,142.46,896.587,142.46Z" transform="translate(-133.266 -99.528)" fill="#e6e6e6"/><path d="M936.465,147.081s9.365-51.609,5.121-51.8S936.465,147.081,936.465,147.081Z" transform="translate(-138.564 -95.282)" fill="#e6e6e6"/><path d="M985.3,160.632s4.095-13.425,8.19-9.845S985.3,160.632,985.3,160.632Z" transform="translate(-144.175 -101.589)" fill="#e6e6e6"/><path d="M941.16,296.478s-5.46,52.807,4.777,51.912S941.16,296.478,941.16,296.478Z" transform="translate(-138.937 -118.397)" fill="#e6e6e6"/><path d="M284.646,372.535s-30.97,10.065-36.91,19.355S284.646,372.535,284.646,372.535Z" transform="translate(-59.375 -127.134)" fill="#e6e6e6"/><path d="M283.783,361.073s-28.54-2.768-37.2,1.962S283.783,361.073,283.783,361.073Z" transform="translate(-59.183 -125.725)" fill="#e6e6e6"/><path d="M296.5,351.155s-14.356-32.524-10.877-35.743S296.5,351.155,296.5,351.155Z" transform="translate(-63.73 -120.55)" fill="#e6e6e6"/><path d="M304.11,359.632s7.705-32.874,15.777-32.874S304.11,359.632,304.11,359.632Z" transform="translate(-65.917 -121.875)" fill="#e6e6e6"/><path d="M309.22,362.727s26.491-15.795,80.765-10.974S309.22,362.727,309.22,362.727Z" transform="translate(-66.504 -124.642)" fill="#e6e6e6"/><path d="M328.2,366.359s46.4-.584,49.009,4.091S328.2,366.359,328.2,366.359Z" transform="translate(-68.684 -126.422)" fill="#e6e6e6"/><path d="M317.98,371.846s28.027,12.223,22.551,15.984S317.98,371.846,317.98,371.846Z" transform="translate(-67.51 -127.055)" fill="#e6e6e6"/><path d="M370.539,388.377s23.26,9.145,18.091,15.241S370.539,388.377,370.539,388.377Z" transform="translate(-73.548 -128.954)" fill="#e6e6e6"/><path d="M321.63,380.111s48.459,49.991,43.936,53.039S321.63,380.111,321.63,380.111Z" transform="translate(-67.929 -128.005)" fill="#e6e6e6"/><path d="M311.41,375.979s20.4,32.062,16.239,35.179S311.41,375.979,311.41,375.979Z" transform="translate(-66.755 -127.53)" fill="#e6e6e6"/><path d="M300.262,374.6s-18.362,51.123-7.094,50.6S300.262,374.6,300.262,374.6Z" transform="translate(-64.239 -127.372)" fill="#e6e6e6"/><path d="M290.835,377.472s-30.823,33.263-28,36.767S290.835,377.472,290.835,377.472Z" transform="translate(-61.153 -127.702)" fill="#e6e6e6"/><path d="M276.684,348.63s-26.872-29.95-51.722-27.048S276.684,348.63,276.684,348.63Z" transform="translate(-56.254 -121.258)" fill="#e6e6e6"/><path d="M256.017,349.743S220.48,347.3,223.064,353.4,256.017,349.743,256.017,349.743Z" transform="translate(-56.59 -124.461)" fill="#e6e6e6"/><path d="M269.764,323.417s-1.938-8.535-5.169-6.706S269.764,323.417,269.764,323.417Z" transform="translate(-61.292 -120.692)" fill="#e6e6e6"/><path d="M307.516,326.565s8.866-35.153,4.848-35.282S307.516,326.565,307.516,326.565Z" transform="translate(-66.308 -117.8)" fill="#e6e6e6"/><path d="M353.749,335.795s3.877-9.145,7.753-6.706S353.749,335.795,353.749,335.795Z" transform="translate(-71.619 -122.096)" fill="#e6e6e6"/><path d="M311.961,428.325s-5.169,35.969,4.523,35.359S311.961,428.325,311.961,428.325Z" transform="translate(-66.66 -133.544)" fill="#e6e6e6"/><path d="M584.646,352.535s-30.97,10.065-36.91,19.355S584.646,352.535,584.646,352.535Z" transform="translate(-93.84 -124.837)" fill="#6c63ff"/><path d="M583.783,341.073s-28.54-2.768-37.2,1.962S583.783,341.073,583.783,341.073Z" transform="translate(-93.648 -123.427)" fill="#6c63ff"/><path d="M596.5,331.155s-14.356-32.524-10.877-35.743S596.5,331.155,596.5,331.155Z" transform="translate(-98.195 -118.253)" fill="#6c63ff"/><path d="M604.11,339.632s7.705-32.874,15.777-32.874S604.11,339.632,604.11,339.632Z" transform="translate(-100.382 -119.578)" fill="#6c63ff"/><path d="M609.22,342.284s49.153-24.5,52.027-11.495S609.22,342.284,609.22,342.284Z" transform="translate(-100.969 -121.901)" fill="#6c63ff"/><path d="M628.2,346.359s46.4-.584,49.01,4.091S628.2,346.359,628.2,346.359Z" transform="translate(-103.149 -124.125)" fill="#6c63ff"/><path d="M617.98,351.846s28.027,12.223,22.551,15.984S617.98,351.846,617.98,351.846Z" transform="translate(-101.975 -124.758)" fill="#6c63ff"/><path d="M670.539,368.377s23.26,9.145,18.091,15.241S670.539,368.377,670.539,368.377Z" transform="translate(-108.013 -126.657)" fill="#6c63ff"/><path d="M621.63,360.111s48.459,49.991,43.936,53.039S621.63,360.111,621.63,360.111Z" transform="translate(-102.395 -125.707)" fill="#6c63ff"/><path d="M611.41,355.979s20.4,32.062,16.239,35.179S611.41,355.979,611.41,355.979Z" transform="translate(-101.22 -125.232)" fill="#6c63ff"/><path d="M600.681,354.6s-14.505,31.224-3.238,30.7S600.681,354.6,600.681,354.6Z" transform="translate(-99.123 -125.074)" fill="#6c63ff"/><path d="M590.835,357.472s-30.823,33.263-28,36.767S590.835,357.472,590.835,357.472Z" transform="translate(-95.619 -125.404)" fill="#6c63ff"/><path d="M578.873,329.845s-8.821-20.5-33.671-17.6S578.873,329.845,578.873,329.845Z" transform="translate(-92.908 -120.176)" fill="#6c63ff"/><path d="M556.016,329.743S520.48,327.3,523.064,333.4,556.016,329.743,556.016,329.743Z" transform="translate(-91.055 -122.163)" fill="#6c63ff"/><path d="M569.764,303.417s-1.938-8.535-5.169-6.706S569.764,303.417,569.764,303.417Z" transform="translate(-95.757 -118.394)" fill="#6c63ff"/><path d="M607.516,306.565s8.866-35.153,4.848-35.282S607.516,306.565,607.516,306.565Z" transform="translate(-100.773 -115.502)" fill="#6c63ff"/><path d="M653.749,315.795s3.877-9.145,7.753-6.706S653.749,315.795,653.749,315.795Z" transform="translate(-106.085 -119.798)" fill="#6c63ff"/><path d="M611.961,408.325s-5.169,35.969,4.523,35.359S611.961,408.325,611.961,408.325Z" transform="translate(-101.126 -131.246)" fill="#6c63ff"/></g></svg>