<svg xmlns="http://www.w3.org/2000/svg" width="853.541" height="623.645" viewBox="0 0 853.541 623.645"><g transform="translate(0 0.001)"><path d="M870.538,256.931a430.18,430.18,0,0,1-122.186-18.113c-39.541-11.7-78.913-29.032-117.022-51.515-60.012-35.406-98.1-72.725-103.785-78.449-21.494,34.076-54.14,60.963-97.047,79.921-34.579,15.278-75.865,25.47-122.71,30.292-79.718,8.207-148.865-2.147-149.554-2.253a.825.825,0,0,1,.25-1.63c.687.106,69.657,10.429,149.17,2.239C380.938,209.873,478.428,184.6,526.7,107.093a.825.825,0,0,1,1.295-.135c.388.4,39.514,40.783,104.216,78.949,59.686,35.207,153.968,75.679,264.179,68.54a.825.825,0,0,1,.107,1.646Q883.56,256.931,870.538,256.931Z" transform="translate(-109.675 -67.27)" fill="#ccc"/><path d="M267.4,283.088a2.02,2.02,0,0,1-1.833-1.469l-10.6-35.6a2.062,2.062,0,0,1,1.891-2.648h0l21.592-.888a2.062,2.062,0,0,1,2.059,2.655l-10.993,36.491a2.024,2.024,0,0,1-1.977,1.467C267.489,283.093,267.442,283.092,267.4,283.088Z" transform="translate(-126.741 -91.075)" fill="#e6e6e6"/><path d="M392.169,273.335a2.02,2.02,0,0,1-2.046-1.155l-16.194-33.431a2.062,2.062,0,0,1,1.44-2.918h0l21.167-4.354A2.062,2.062,0,0,1,399,233.766l-4.974,37.785a2.024,2.024,0,0,1-1.715,1.766C392.261,273.325,392.214,273.33,392.169,273.335Z" transform="translate(-147.578 -89.138)" fill="#e6e6e6"/><path d="M529.023,225.927a2.02,2.02,0,0,1-2.291-.517L501.6,198.051a2.062,2.062,0,0,1,.54-3.209h0l19.02-10.26a2.062,2.062,0,0,1,3.014,1.484l6.107,37.618a2.024,2.024,0,0,1-1.135,2.185C529.109,225.89,529.066,225.909,529.023,225.927Z" transform="translate(-169.903 -80.881)" fill="#e6e6e6"/><path d="M976.489,324.027a2.02,2.02,0,0,1-1.657-1.665L968.283,285.8a2.062,2.062,0,0,1,2.176-2.42h0l21.556,1.534a2.062,2.062,0,0,1,1.749,2.868L978.756,322.81a2.024,2.024,0,0,1-2.129,1.237C976.58,324.042,976.534,324.035,976.489,324.027Z" transform="translate(-251.812 -98.244)" fill="#e6e6e6"/><path d="M838.459,294.9a2.02,2.02,0,0,1-1.247-1.991L838.94,255.8a2.062,2.062,0,0,1,2.658-1.877h0l20.679,6.278a2.062,2.062,0,0,1,1.069,3.185L840.94,294.217a2.024,2.024,0,0,1-2.35.733C838.545,294.935,838.5,294.918,838.459,294.9Z" transform="translate(-228.837 -93.066)" fill="#e6e6e6"/><rect width="4.948" height="15.669" transform="translate(325.776 145.33)" fill="#f2f2f2"/><rect width="4.948" height="15.669" transform="translate(405.77 100.798)" fill="#f2f2f2"/><rect width="4.948" height="15.669" transform="translate(386.586 151.874) rotate(-38.519)" fill="#f2f2f2"/><rect width="15.669" height="4.948" transform="translate(359.303 209.841) rotate(-60)" fill="#f2f2f2"/><rect width="15.669" height="4.948" transform="translate(337.036 57.276) rotate(-60)" fill="#f2f2f2"/><rect width="4.948" height="15.669" transform="translate(573.959 161.765)" fill="#f2f2f2"/><rect width="4.948" height="15.669" transform="translate(653.952 117.233)" fill="#f2f2f2"/><rect width="4.948" height="15.669" transform="translate(634.769 168.308) rotate(-38.519)" fill="#f2f2f2"/><rect width="15.669" height="4.948" transform="translate(607.485 226.275) rotate(-60)" fill="#f2f2f2"/><rect width="15.669" height="4.948" transform="translate(585.218 73.71) rotate(-60)" fill="#f2f2f2"/><rect width="4.948" height="15.669" transform="translate(161.666 101.622)" fill="#f2f2f2"/><rect width="4.948" height="15.669" transform="translate(241.659 57.09)" fill="#f2f2f2"/><rect width="4.948" height="15.669" transform="translate(222.475 108.166) rotate(-38.519)" fill="#f2f2f2"/><rect width="15.669" height="4.948" transform="translate(195.192 166.134) rotate(-60)" fill="#f2f2f2"/><rect width="15.669" height="4.948" transform="translate(172.924 13.569) rotate(-60)" fill="#f2f2f2"/><path d="M224.652,216.965a38.425,38.425,0,1,1,38.425-38.425A38.425,38.425,0,0,1,224.652,216.965Zm0-69.316a30.891,30.891,0,1,0,30.891,30.891,30.891,30.891,0,0,0-30.891-30.891Z" transform="translate(-114.705 -73.128)" fill="#6c63ff"/><path d="M259.31,280.97H189.993a3.767,3.767,0,0,1-2.717-6.377l55.084-57.344a3.767,3.767,0,0,1,5.434,5.22l-48.958,50.967H259.31a3.767,3.767,0,1,1,0,7.534Z" transform="translate(-114.705 -86.448)" fill="#6c63ff"/><path d="M239.948,304.309H225.261a2.007,2.007,0,0,1-1.728-2.2l1.728-8.8a2.007,2.007,0,0,1,1.728-2.2H238.22a2.007,2.007,0,0,1,1.728,2.2l1.728,8.8A2.007,2.007,0,0,1,239.948,304.309Z" transform="translate(-121.244 -99.601)" fill="#6c63ff"/><path d="M241.519,299.887H221.726a2.886,2.886,0,0,1,0-5.773h19.792a2.886,2.886,0,0,1,0,5.773Z" transform="translate(-120.423 -100.127)" fill="#3f3d56"/><path d="M216.022,296.621a20.432,20.432,0,0,0-17.606,3.782,20.066,20.066,0,0,0-7.311,16.424c.6,13.474,14.169,20.716,23.625,27.963,11.174,8.564,21.663,18.444,29.235,30.407,7.5,11.846,12.2,25.884,11.111,40.023-.942,12.229-6.484,24.352-15.988,32.266a37.826,37.826,0,0,1-3.766,2.742c-1.335.858-.1,3,1.249,2.136,10.413-6.693,17.3-17.851,19.91-29.839,2.9-13.337.317-27.221-5.388-39.464-5.926-12.719-15.249-23.532-25.724-32.738-5.2-4.566-10.715-8.711-16.3-12.778-4.915-3.576-10.067-7.426-13.122-12.81a17.844,17.844,0,0,1-.187-17.37,17.494,17.494,0,0,1,15.142-8.9,17.219,17.219,0,0,1,4.467.546,1.238,1.238,0,0,0,.658-2.386Z" transform="translate(-115.557 -100.46)" fill="#3f3d56"/><path d="M731.586,161.965a38.425,38.425,0,1,1,38.425-38.425,38.425,38.425,0,0,1-38.425,38.425Zm0-69.316a30.891,30.891,0,1,0,30.891,30.891,30.891,30.891,0,0,0-30.891-30.891Z" transform="translate(-203.582 -63.485)" fill="#6c63ff"/><path d="M766.244,225.97H696.927a3.767,3.767,0,0,1-2.717-6.377l55.084-57.344a3.767,3.767,0,1,1,5.434,5.22L705.77,218.436h60.474a3.767,3.767,0,1,1,0,7.534Z" transform="translate(-203.582 -76.806)" fill="#6c63ff"/><path d="M747.948,249.309H733.261a2.007,2.007,0,0,1-1.728-2.2l1.728-8.8a2.007,2.007,0,0,1,1.728-2.2H746.22a2.007,2.007,0,0,1,1.728,2.2l1.728,8.8A2.007,2.007,0,0,1,747.948,249.309Z" transform="translate(-210.308 -89.959)" fill="#6c63ff"/><path d="M749.519,244.887H729.726a2.886,2.886,0,0,1,0-5.773h19.792a2.886,2.886,0,0,1,0,5.773Z" transform="translate(-209.487 -90.485)" fill="#3f3d56"/><path d="M724.022,241.621a20.432,20.432,0,0,0-17.606,3.782,20.065,20.065,0,0,0-7.311,16.424c.6,13.474,14.169,20.716,23.625,27.963,11.174,8.564,21.663,18.444,29.235,30.406,7.5,11.846,12.2,25.884,11.111,40.023-.942,12.229-6.484,24.352-15.988,32.266a37.81,37.81,0,0,1-3.766,2.742c-1.335.858-.1,3,1.249,2.136,10.413-6.693,17.3-17.851,19.91-29.839,2.9-13.337.317-27.221-5.388-39.464-5.927-12.719-15.249-23.532-25.724-32.738-5.2-4.567-10.715-8.711-16.3-12.778-4.915-3.576-10.067-7.426-13.122-12.81a17.844,17.844,0,0,1-.187-17.37,17.494,17.494,0,0,1,15.142-8.9,17.218,17.218,0,0,1,4.467.546,1.238,1.238,0,0,0,.658-2.386Z" transform="translate(-204.621 -90.817)" fill="#3f3d56"/><path d="M895.2,691.17h-9.355l-4.45-36.085H895.2Z" transform="translate(-154.529 -114.852)" fill="#ffb8b8"/><path d="M876.274,695.6h18.042v11.36h-29.4a11.36,11.36,0,0,1,11.36-11.36Z" transform="translate(-151.639 -121.955)" fill="#2f2e41"/><path d="M974.591,679.014l-8.51,3.887-19.042-30.973,12.56-5.736Z" transform="translate(-166.038 -113.292)" fill="#ffb8b8"/><path d="M11.36,0H29.4V11.36H0A11.36,11.36,0,0,1,11.36,0Z" transform="translate(782.521 574.675) rotate(-24.548)" fill="#2f2e41"/><path d="M993.248,717.061H984.31a3.447,3.447,0,0,1-3.425-3.185l-4.874-130.151a3.434,3.434,0,0,1,3.758-3.666l51.687,5.489a3.435,3.435,0,0,1,3.1,3.353l1.083,57.411a2.666,2.666,0,0,0,.178.911l21.2,54.982a3.433,3.433,0,0,1-2.017,4.457L1045.947,710a3.435,3.435,0,0,1-4.241-1.651L1015.66,657.7a3.419,3.419,0,0,1-.308-.872l-4.449-21.438a2.671,2.671,0,0,0-5.268.239l-8.976,78.387A3.433,3.433,0,0,1,993.248,717.061Z" transform="translate(-253.171 -150.257)" fill="#2f2e41"/><circle cx="18.742" cy="18.742" r="18.742" transform="translate(725.785 294.219)" fill="#ffb8b8"/><path d="M1010.351,576.7a67.773,67.773,0,0,1-34.259-9.791h0a3.411,3.411,0,0,1-1.615-3.158l4.557-65.146a28.243,28.243,0,0,1,12.882-21.864,27.189,27.189,0,0,1,24.262-2.891,19.147,19.147,0,0,1,4.935,2.557c10.1,7.52,14.962,18.844,13.351,31.067-3.342,25.349.444,59.543.887,63.358l.032.275-.251.116A58.792,58.792,0,0,1,1010.351,576.7Z" transform="translate(-252.902 -131.354)" fill="#ccc"/><path d="M1044.275,602.39a7.674,7.674,0,0,0,.611-11.75l11-24.953-13.971,2.368-8.3,23.333a7.715,7.715,0,0,0,10.664,11Z" transform="translate(-262.968 -147.74)" fill="#ffb8b8"/><path d="M1045.447,574.553a3.423,3.423,0,0,1-2.528-1.114l-4.1-4.473a3.451,3.451,0,0,1-.762-3.293l9.39-31.781-14.287-30a6.341,6.341,0,0,1,11.307-5.732l19.313,31.338a8.738,8.738,0,0,1,.526,8.188l-15.727,34.846a3.426,3.426,0,0,1-2.587,1.978A3.482,3.482,0,0,1,1045.447,574.553Z" transform="translate(-263.085 -135.316)" fill="#ccc"/><path d="M1012.585,449.329c-1.943.333-3.543-2.372-3.785-4.275s.452-3.724.527-5.615-.816-4.188-2.779-4.748c-2.058-.588-3.966,1.063-6.074.865-2.936-.277-4.411-3.713-4.766-6.493s-.635-6.072-3.178-7.657-5.671-.43-8.584-.381c-4.923.083-9.935-3.671-11.085-8.3a2.793,2.793,0,0,0,3.186-1.276,2.826,2.826,0,0,0-.85-3.341l5.581,2.733c-.763-1.552.389-3.32,1.975-3.908a10.54,10.54,0,0,1,5.179-.052c8.738,1.357,18.858.688,24.654,7.351,4.015,4.615,7.319,13.4,6.868,19.077S1012.585,449.329,1012.585,449.329Z" transform="translate(-252.62 -119.844)" fill="#2f2e41"/><path d="M899.69,496.948a7.673,7.673,0,0,1,11.029,4.1l27.268-.2-7.716,11.885L905.56,511.1a7.715,7.715,0,0,1-5.87-14.154Z" transform="translate(-239.101 -135.513)" fill="#ffb8b8"/><path d="M917.718,506.975a3.423,3.423,0,0,1,.575-2.7l3.543-4.926a3.451,3.451,0,0,1,3.069-1.417l31.9-1.336,27.589-16.056a6.34,6.34,0,0,1,7.917,9.9l-26.741,25.3a8.738,8.738,0,0,1-7.909,2.185l-37.321-8.291a3.425,3.425,0,0,1-2.464-2.129A3.512,3.512,0,0,1,917.718,506.975Z" transform="translate(-242.94 -132.585)" fill="#ccc"/><path d="M169.583,546.538a6.447,6.447,0,0,0,11.15-6.475,6.93,6.93,0,0,0-.607-.862l5.423-38.654.162-1.158,1.1-7.888.162-1.137-.6.028-10.507.48L173.05,491l-.353,7.2-2,40.455a6.438,6.438,0,0,0-1.116,7.888Z" transform="translate(-111.634 -134.534)" fill="#ffb8b8"/><path d="M185.944,493.009,172.6,491.785a2.634,2.634,0,0,1-2.376-2.851l2.475-27.746a10.116,10.116,0,1,1,20.085,2.371l-4,27.215a2.629,2.629,0,0,1-2.6,2.246C186.107,493.02,186.026,493.016,185.944,493.009Z" transform="translate(-111.898 -127.803)" fill="#ccc"/><path d="M176.8,469.453a18.583,18.583,0,0,1,6.834-21.387c5.031-3.442,11.916-4.678,19.331,4.149a92.308,92.308,0,0,1,18.713,37.073l-30.364,4.943S180.987,481.608,176.8,469.453Z" transform="translate(-112.867 -126.664)" fill="#ccc"/><path d="M137.076,649.7h8.657l4.118-33.392H137.074Z" transform="translate(-24.032 -108.052)" fill="#ffb8b8"/><path d="M0,0H27.209V10.512h-16.7A10.512,10.512,0,0,1,0,0H0Z" transform="translate(138.394 549.683) rotate(179.997)" fill="#2f2e41"/><path d="M50.769,640.9l8.22,2.717L73.38,613.2l-12.132-4.01Z" transform="translate(-8.901 -106.806)" fill="#ffb8b8"/><path d="M0,0H27.208V10.512h-16.7A10.512,10.512,0,0,1,0,0H0Z" transform="translate(63.418 549.682) rotate(-161.71)" fill="#2f2e41"/><circle cx="17.344" cy="17.344" r="17.344" transform="translate(65.65 277.959)" fill="#ffb8b8"/><path d="M204.7,667.9l-8.04-53.063a2.471,2.471,0,0,0-4.846-.212l-12.243,50.569a3.2,3.2,0,0,1-3.593,2.39l-33.771-5.428a3.178,3.178,0,0,1-2.537-4.06L183.7,512.914a2.473,2.473,0,0,0,.043-1.272l-1.466-6.353a3.166,3.166,0,0,1,1.643-3.54c6-3.06,21.181-9.421,32.646-2.453a3.214,3.214,0,0,1,1.468,2.067l34.4,161.683a3.178,3.178,0,0,1-2.825,3.827l-41.491,3.715q-.143.012-.285.012A3.183,3.183,0,0,1,204.7,667.9Z" transform="translate(-106.518 -135.55)" fill="#2f2e41"/><path d="M184.07,400.107a13.121,13.121,0,0,0,3.429-2.98,4.45,4.45,0,0,0,.685-4.306c-.876-1.933-3.48-2.545-5.5-1.886s-3.576,2.24-5.051,3.766a13.045,13.045,0,0,0-3.251,4.513c-.616,1.765-.3,4,1.233,5.074a4.452,4.452,0,0,0,5.113-.508,13.041,13.041,0,0,0,3.2-4.427Z" transform="translate(-112.577 -117.058)" fill="#2f2e41"/><path d="M173.079,394.49c-.1-4.887-5.666-8.391-10.477-7.525s-8.508,4.968-10.359,9.491c-3.911,9.558-.975,20.464,2.793,30.079s8.431,19.376,7.882,29.688a31.017,31.017,0,0,1-18.017,26.13c5.429,2.461,11.918-.081,16.481-3.918a32.936,32.936,0,0,0,9.294-36.045c-2.342-6.095-6.47-11.309-9.693-16.987s-5.587-12.37-3.923-18.684,8.745-11.427,14.8-8.982Z" transform="translate(-107.46 -116.383)" fill="#2f2e41"/><path d="M196.985,420.518c-1.512-2.555-3.038-5.909-.274-8.142a5.694,5.694,0,0,1,4.272-1.13c3.116.376,6.509.53,9.524-.6a8.929,8.929,0,0,0,5.179-4.654c1.557-3.689-.393-8.171-3.647-10.5a12.286,12.286,0,0,0-13.6-.241,14.01,14.01,0,0,0-13.16,1.529,20.918,20.918,0,0,0-7.874,11.051,21.33,21.33,0,0,0-.652,11.732,17.437,17.437,0,0,0,10.816,11.919,6.279,6.279,0,0,0,6.2-.92,11.665,11.665,0,0,0,3.138-4.6C197.485,424.027,197.793,421.883,196.985,420.518Z" transform="translate(-112.951 -117.519)" fill="#2f2e41"/><path d="M254.065,443.852a7.429,7.429,0,0,0-.169,1.158l-30.334,17.5-7.373-4.245-7.859,10.29,12.322,8.783a5.649,5.649,0,0,0,6.778-.165l31.28-24.677a7.412,7.412,0,1,0-4.643-8.644Z" transform="translate(-118.58 -125.377)" fill="#ffb8b8"/><path d="M219.38,465.646l-9.8,12.706a3.178,3.178,0,0,1-4.8.263l-11.1-11.525A8.825,8.825,0,0,1,204.5,453.148l13.92,7.784a3.178,3.178,0,0,1,.964,4.714Z" transform="translate(-115.412 -127.685)" fill="#ccc"/><path d="M914.141,385.032a3.778,3.778,0,0,1-3.752-3.8V269.1L881.94,297.932a3.717,3.717,0,0,1-5.306,0,3.84,3.84,0,0,1,0-5.378l34.853-35.326a3.716,3.716,0,0,1,4.089-.824,3.8,3.8,0,0,1,2.316,3.513V381.228a3.778,3.778,0,0,1-3.752,3.8Z" transform="translate(-235.557 -93.465)" fill="#6c63ff"/><path d="M914.474,420.854H929.1a2.019,2.019,0,0,0,1.721-2.22l-1.721-8.88a2.019,2.019,0,0,0-1.721-2.22H916.2a2.019,2.019,0,0,0-1.721,2.22l-1.721,8.88A2.019,2.019,0,0,0,914.474,420.854Z" transform="translate(-242.08 -120.013)" fill="#6c63ff"/><path d="M908.469,413.477a2.9,2.9,0,0,1,2.875-2.914h19.712a2.914,2.914,0,1,1,0,5.828H911.343a2.9,2.9,0,0,1-2.874-2.914Z" transform="translate(-241.331 -120.544)" fill="#3f3d56"/><path d="M928.049,413.095a20.138,20.138,0,0,1,17.535,3.818,20.376,20.376,0,0,1,7.281,16.579c-.6,13.6-14.111,20.913-23.529,28.228-11.129,8.645-21.575,18.619-29.116,30.694-7.468,11.959-12.151,26.13-11.066,40.4.939,12.344,6.458,24.583,15.923,32.572a37.728,37.728,0,0,0,3.751,2.768c1.33.866.1,3.029-1.244,2.157-10.371-6.757-17.231-18.02-19.83-30.122-2.891-13.463-.315-27.479,5.367-39.838,5.9-12.839,15.187-23.755,25.62-33.048,5.175-4.61,10.671-8.794,16.239-12.9,4.9-3.61,10.026-7.5,13.069-12.931a18.227,18.227,0,0,0,.186-17.535,17.386,17.386,0,0,0-15.08-8.988,16.927,16.927,0,0,0-4.449.551,1.249,1.249,0,0,1-.655-2.408Z" transform="translate(-237.49 -120.88)" fill="#3f3d56"/><path d="M663.853,498.269a7.729,7.729,0,0,0,2.764-11.524l5.779-56.5H659.907l-4.593,55.174a7.771,7.771,0,0,0,8.539,12.855Z" transform="translate(-196.467 -123.994)" fill="#a0616a"/><circle cx="17.67" cy="17.67" r="17.67" transform="translate(461.184 239.724)" fill="#a0616a"/><path d="M680.742,457.6a3.231,3.231,0,0,1-3.115-2.373c-1.416-5.144-5.1-13.84-10.947-25.849a21.412,21.412,0,0,1,12.159-29.562h0a21.4,21.4,0,0,1,27.5,13.634c4.533,14.212,4.314,29.435,4.01,35.32a3.246,3.246,0,0,1-2.542,3l-26.372,5.759a3.223,3.223,0,0,1-.694.075Z" transform="translate(-198.562 -118.445)" fill="#ccc"/><path d="M615.657,607.487h8.82l4.2-34.02H615.655Z" transform="translate(-107.938 -100.542)" fill="#a0616a"/><path d="M0,0H27.72V10.71H10.71A10.71,10.71,0,0,1,0,0Z" transform="translate(533.546 515.137) rotate(179.997)" fill="#2f2e41"/><path d="M508.711,594.521l7.729,4.25,20.068-27.79L525.1,564.709Z" transform="translate(-89.189 -99.007)" fill="#a0616a"/><path d="M0,0H27.72V10.71H10.71A10.71,10.71,0,0,1,0,0Z" transform="translate(438.212 515.135) rotate(-151.199)" fill="#2f2e41"/><path d="M697.723,616.671a3.237,3.237,0,0,1-3.207-2.821l-11.031-85a1.8,1.8,0,0,0-3.359-.637l-45.971,83.4a3.255,3.255,0,0,1-3.988,1.463l-10.02-3.818a3.237,3.237,0,0,1-1.846-4.246l31.845-78.229a2.492,2.492,0,0,0,.163-.62c4.313-33.384,15.288-50.361,18.548-54.769a2.507,2.507,0,0,0,.357-2.283l-.448-1.345a3.236,3.236,0,0,1,.623-3.149c11.749-13.383,32.228-6.08,32.433-6l.1.038.064.088c22.962,31.491,14.472,133.774,12.537,153.958a3.229,3.229,0,0,1-2.974,2.914l-13.578,1.045C697.889,616.668,697.806,616.671,697.723,616.671Z" transform="translate(-190.416 -128.608)" fill="#2f2e41"/><path d="M753.549,394.651a7.585,7.585,0,0,0-.172,1.18L722.471,413.66l-7.512-4.324-8.009,10.484,12.554,8.948a5.755,5.755,0,0,0,6.905-.168l31.868-25.141a7.552,7.552,0,1,0-4.731-8.807Z" transform="translate(-206 -116.732)" fill="#a0616a"/><path d="M718.21,416.855,708.222,429.8a3.238,3.238,0,0,1-4.9.268l-11.307-11.742a8.991,8.991,0,1,1,11.026-14.2l14.182,7.93a3.238,3.238,0,0,1,.982,4.8Z" transform="translate(-202.772 -119.083)" fill="#ccc"/><path d="M673.587,440.872,657.5,437.966A3.238,3.238,0,0,1,655,433.745l5.216-15.444a8.991,8.991,0,1,1,17.686,3.247l-.509,16.241a3.237,3.237,0,0,1-3.811,3.084Z" transform="translate(-196.863 -120.608)" fill="#ccc"/><path d="M670.028,361.438c4.542,3.108,10.5,6.3,15.143,2.993a8.441,8.441,0,0,0,2.77-9.73c-2.221-6.352-8.323-9.148-14.159-11.291-7.586-2.786-15.846-5-23.677-3.008s-14.752,9.578-13.339,17.535c1.137,6.4,7.173,11.723,6.316,18.165-.862,6.484-8.154,9.9-14.591,11.055s-13.641,1.531-18.267,6.155c-5.9,5.9-4.428,16.441,1.125,22.669s13.933,9.051,22.053,10.97c10.759,2.543,22.4,3.879,32.613-.341s18.17-15.579,15.21-26.23c-1.25-4.5-4.2-8.3-7.042-12s-5.729-7.573-6.815-12.114c-.9-3.785-.235-8.179,2.275-11.018a3.192,3.192,0,0,0,.428-3.731Z" transform="translate(-188.378 -108.108)" fill="#2f2e41"/><path d="M370.31,602.524a8.293,8.293,0,0,1,12.634-1.438l26.187-13.517L407.5,602.8l-24.618,10.5a8.338,8.338,0,0,1-12.575-10.773Z" transform="translate(-146.732 -151.577)" fill="#a0616a"/><path d="M397.188,596.449a3.715,3.715,0,0,1-1.257-1.824l-2.083-6.729a3.723,3.723,0,0,1,1.309-4.059L416.381,567.8l22.986-42.647a11.955,11.955,0,0,1,18.886,14.663l-13.077,27.6a38.243,38.243,0,0,1-19.349,18.718l-24.874,10.79a3.715,3.715,0,0,1-3.026-.032A3.676,3.676,0,0,1,397.188,596.449Z" transform="translate(-151.077 -139.824)" fill="#ccc"/><circle cx="20.255" cy="20.255" r="20.255" transform="translate(287.496 327.025)" fill="#a0616a"/><path d="M360.058,735.015H349.948l-4.809-39H360.06Z" transform="translate(-60.511 -122.028)" fill="#a0616a"/><path d="M339.6,739.8h19.5V752.08H327.326A12.277,12.277,0,0,1,339.6,739.8Z" transform="translate(-57.388 -129.705)" fill="#2f2e41"/><path d="M400.058,735.015H389.948l-4.81-39H400.06Z" transform="translate(-67.524 -122.028)" fill="#a0616a"/><path d="M379.6,739.8h19.5V752.08H367.326A12.277,12.277,0,0,1,379.6,739.8Z" transform="translate(-64.401 -129.705)" fill="#2f2e41"/><path d="M490.3,761.075H478.448a3.718,3.718,0,0,1-3.583-2.745l-17.057-63.253a.412.412,0,0,0-.81.132l3.448,59.989a3.71,3.71,0,0,1-4.013,3.911L443.116,758a3.721,3.721,0,0,1-3.378-3.269L427.6,628.766l4.694,2.816,43.979-7.469,17.7,132.761a3.712,3.712,0,0,1-3.679,4.2Z" transform="translate(-157.024 -157.984)" fill="#2f2e41"/><path d="M442.125,622.588a27.164,27.164,0,0,1-13.765-3.874,3.7,3.7,0,0,1-1.762-3.784c1.546-9.473,9.633-58.064,16.991-84.554,3-10.789,9.624-16.6,19.7-17.272,14.735-.967,27.833,10.561,29.2,25.728,2.407,26.759-7.364,64.779-11.677,79.883a3.708,3.708,0,0,1-5.845,1.9l-8.793-6.839a2.913,2.913,0,0,0-3.724.155C455.036,620.544,448,622.588,442.125,622.588Z" transform="translate(-156.839 -138.511)" fill="#ccc"/><path d="M466.049,639.213a8.293,8.293,0,0,1,9.054-8.929l12.264-26.8,8.116,12.987L482.593,639.93a8.338,8.338,0,0,1-16.544-.717Z" transform="translate(-163.76 -154.368)" fill="#a0616a"/><path d="M489.507,615.35a3.716,3.716,0,0,1-2.115-.66l-5.791-4.009a3.723,3.723,0,0,1-1.475-4l6.807-25.714L478.7,533.224a11.955,11.955,0,1,1,23.91-.117l6.745,29.79a38.243,38.243,0,0,1-3.673,26.669l-12.914,23.841a3.716,3.716,0,0,1-2.4,1.842A3.668,3.668,0,0,1,489.507,615.35Z" transform="translate(-165.983 -139.943)" fill="#ccc"/><path d="M380.493,501.307l7.422,31.338-10.721,26.39,7.422-25.565Z" transform="translate(-66.131 -87.891)" opacity="0.2"/><path d="M480.065,490.9a13.64,13.64,0,0,0,5.268-.953c.737-.284,1.5-.518,2.239-.8,6.5-2.511,10.782-9.434,10.935-16.4s-3.454-13.728-8.811-18.184-12.3-6.744-19.244-7.273c-7.484-.57-15.911,1.328-20.094,7.561a6.565,6.565,0,0,0-1.232,5.675,3.631,3.631,0,0,0,1.023,1.572c1.868,1.662,3.73.412,5.633.3,2.617-.152,4.967,1.966,5.812,4.448a13.4,13.4,0,0,1-.209,7.744,19.35,19.35,0,0,0-.975,4.709,4.734,4.734,0,0,0,1.961,4.169c1.635.988,3.783.416,5.419-.57s3.05-2.359,4.817-3.085,4.142-.565,5.171,1.045a5.719,5.719,0,0,1,.654,1.887c.922,4.2.71,3.954,1.633,8.156Z" transform="translate(-160.755 -126.966)" fill="#2f2e41"/><path d="M1090.2,767.763H887.325a.825.825,0,0,1,0-1.649H1090.2a.825.825,0,0,1,0,1.649Z" transform="translate(-237.479 -182.88)" fill="#ccc"/><path d="M303.2,726.763H100.325a.825.825,0,1,1,0-1.649H303.2a.825.825,0,1,1,0,1.649Z" transform="translate(-99.5 -175.692)" fill="#ccc"/><path d="M751.2,682.763H548.325a.825.825,0,0,1,0-1.649H751.2a.825.825,0,1,1,0,1.649Z" transform="translate(-178.045 -167.977)" fill="#ccc"/><path d="M563.2,814.763H360.325a.825.825,0,0,1,0-1.649H563.2a.825.825,0,0,1,0,1.649Z" transform="translate(-145.084 -191.12)" fill="#ccc"/><path d="M684.428,336.344l-7.618-5.423-6.047-4.311-8.77-6.245-6.055-4.307-8.23-5.869a.936.936,0,0,0-1.471.672l-.695,7.318L645,323.836l-.784,8.2-.532,5.66-.784,8.2-.536,5.652-.4,4.2a.867.867,0,0,0,.075.477.975.975,0,0,0,.3.373.927.927,0,0,0,.929.087l41.014-18.733a.877.877,0,0,0,.513-.623.7.7,0,0,0,.03-.136.973.973,0,0,0-.083-.473A.866.866,0,0,0,684.428,336.344Z" transform="translate(-194.605 -102.916)" fill="#6c63ff"/><path d="M563.14,262.763l-16.995,3.47.544-5.656,10.4-2.122Z" transform="translate(-95.752 -45.313)" fill="#3f3d56"/><path d="M577.678,275.563l-33.129,6.771.533-5.661,26.549-5.421Z" transform="translate(-95.472 -47.557)" fill="#3f3d56"/><path d="M684.88,343.127a.877.877,0,0,1-.513.623l-19.94,9.108-21.978,4.489.536-5.652Z" transform="translate(-194.691 -108.72)" fill="#3f3d56"/><circle cx="7.437" cy="7.437" r="7.437" transform="translate(443.192 196.367)" fill="#6c63ff"/><path d="M502.892,459.238l-1.254-9.266-.991-7.36-1.442-10.67-1-7.363-1.348-10.018a.936.936,0,0,0-1.5-.614l-5.814,4.5-4.5,3.471-6.516,5.035-4.493,3.483-6.516,5.035-4.49,3.474-3.339,2.58a.865.865,0,0,0-.3.381.974.974,0,0,0-.064.476.927.927,0,0,0,.572.737l41.717,17.108a.877.877,0,0,0,.8-.052.689.689,0,0,0,.12-.071.973.973,0,0,0,.288-.384A.865.865,0,0,0,502.892,459.238Z" transform="translate(-162.586 -121.103)" fill="#6c63ff"/><path d="M405.173,374.054l-14.156-10.025,4.5-3.471,8.659,6.132Z" transform="translate(-68.554 -63.214)" fill="#3f3d56"/><path d="M405.266,393.891l-27.6-19.537,4.494-3.483,22.114,15.66Z" transform="translate(-66.214 -65.023)" fill="#3f3d56"/><path d="M503.216,464.79a.877.877,0,0,1-.8.052l-20.282-8.317-18.307-12.964,4.49-3.474Z" transform="translate(-163.374 -125.72)" fill="#3f3d56"/><circle cx="7.437" cy="7.437" r="7.437" transform="translate(327.673 281.843)" fill="#6c63ff"/><path d="M389.631,408.822c-10.661,0-20.523-6.919-27.77-19.484-6.871-11.912-10.655-27.67-10.655-44.37s3.784-32.458,10.655-44.37c7.247-12.565,17.11-19.484,27.77-19.484s20.523,6.919,27.77,19.484c6.871,11.912,10.655,27.67,10.655,44.37s-3.784,32.458-10.655,44.37C410.154,401.9,400.292,408.822,389.631,408.822Zm0-120.174c-7.854,0-15.4,5.581-21.244,15.714-6.221,10.785-9.647,25.206-9.647,40.605s3.426,29.82,9.647,40.605c5.845,10.133,13.389,15.714,21.244,15.714s15.4-5.581,21.244-15.714c6.221-10.785,9.647-25.206,9.647-40.605s-3.426-29.82-9.647-40.605C405.03,294.229,397.485,288.648,389.631,288.648Z" transform="translate(-143.63 -97.848)" fill="#6c63ff"/><path d="M391.261,442.309h14.687a2.007,2.007,0,0,0,1.728-2.2l-1.728-8.8a2.007,2.007,0,0,0-1.728-2.2H392.989a2.007,2.007,0,0,0-1.728,2.2l-1.728,8.8A2.007,2.007,0,0,0,391.261,442.309Z" transform="translate(-150.347 -123.796)" fill="#6c63ff"/><path d="M385.23,435a2.89,2.89,0,0,1,2.886-2.886h19.792a2.886,2.886,0,1,1,0,5.773H388.116A2.89,2.89,0,0,1,385.23,435Z" transform="translate(-149.595 -124.322)" fill="#3f3d56"/><path d="M404.891,434.621A20.432,20.432,0,0,1,422.5,438.4a20.066,20.066,0,0,1,7.311,16.424c-.6,13.474-14.169,20.716-23.625,27.963-11.174,8.564-21.663,18.444-29.235,30.407-7.5,11.846-12.2,25.884-11.111,40.023.942,12.229,6.484,24.352,15.988,32.266a37.842,37.842,0,0,0,3.766,2.742c1.335.858.1,3-1.249,2.136-10.413-6.693-17.3-17.851-19.91-29.839-2.9-13.337-.317-27.221,5.388-39.464,5.926-12.719,15.249-23.532,25.724-32.738,5.2-4.567,10.715-8.711,16.3-12.778,4.915-3.576,10.067-7.426,13.122-12.81a17.844,17.844,0,0,0,.187-17.37,17.494,17.494,0,0,0-15.142-8.9,17.216,17.216,0,0,0-4.467.546,1.238,1.238,0,0,1-.658-2.386Z" transform="translate(-145.738 -124.655)" fill="#3f3d56"/></g></svg>