<svg xmlns="http://www.w3.org/2000/svg" xmlns:xlink="http://www.w3.org/1999/xlink" width="743.968" height="587.662" viewBox="0 0 743.968 587.662"><defs><linearGradient id="a" x1="0.5" y1="1" x2="0.5" gradientUnits="objectBoundingBox"><stop offset="0" stop-color="gray" stop-opacity="0.251"/><stop offset="0.54" stop-color="gray" stop-opacity="0.122"/><stop offset="1" stop-color="gray" stop-opacity="0.102"/></linearGradient><linearGradient id="d" y2="-0.001" xlink:href="#a"/><linearGradient id="g" x1="29.773" y1="26.262" x2="29.773" y2="25.263" xlink:href="#a"/><linearGradient id="h" y1="0.999" xlink:href="#a"/><linearGradient id="i" x1="35.813" y1="30.815" x2="35.813" y2="29.815" xlink:href="#a"/><linearGradient id="j" x1="39.503" y1="24.82" x2="39.503" y2="23.82" xlink:href="#a"/><linearGradient id="k" x1="30.785" y1="19.69" x2="30.785" y2="18.69" xlink:href="#a"/><linearGradient id="l" x1="25.655" y1="10.971" x2="25.655" y2="9.972" xlink:href="#a"/><linearGradient id="m" x1="25.656" y1="0.713" x2="25.656" y2="-0.287" xlink:href="#a"/><linearGradient id="n" x1="40.017" y1="-13.391" x2="40.017" y2="-14.391" xlink:href="#a"/><linearGradient id="o" x1="50.274" y1="-13.135" x2="50.274" y2="-14.134" xlink:href="#a"/><linearGradient id="p" x1="58.481" y1="-8.006" x2="58.481" y2="-9.006" xlink:href="#a"/><linearGradient id="q" x1="63.609" y1="0.2" x2="63.609" y2="-0.799" xlink:href="#a"/></defs><rect width="712.264" height="470.984" transform="translate(31.705)" fill="url(#a)"/><rect width="698.018" height="401.094" transform="translate(37.937 55.646)" fill="#fff"/><rect width="698.018" height="45.852" transform="translate(37.937 9.794)" fill="#6c63ff"/><rect width="680.212" height="349.9" transform="translate(47.731 84.581)" fill="url(#a)"/><rect width="81.91" height="65.439" transform="translate(56.189 90.814)" fill="#6c63ff" opacity="0.5"/><rect width="81.91" height="65.439" transform="translate(138.989 90.814)" fill="#fff"/><rect width="81.91" height="65.439" transform="translate(221.79 90.814)" fill="#6c63ff" opacity="0.2"/><rect width="81.91" height="65.439" transform="translate(304.591 90.814)" fill="#fff"/><rect width="81.91" height="65.439" transform="translate(387.391 90.814)" fill="#fff"/><rect width="81.91" height="65.439" transform="translate(470.192 90.814)" fill="#6c63ff" opacity="0.5"/><rect width="81.91" height="65.439" transform="translate(552.993 90.814)" fill="#fff"/><rect width="81.91" height="65.439" transform="translate(635.793 90.814)" fill="#6c63ff" opacity="0.2"/><rect width="81.91" height="65.439" transform="translate(56.189 157.588)" fill="#6c63ff" opacity="0.2"/><rect width="81.91" height="65.439" transform="translate(138.989 157.588)" fill="#6c63ff" opacity="0.2"/><rect width="81.91" height="65.439" transform="translate(221.79 157.588)" fill="#fff"/><rect width="81.91" height="65.439" transform="translate(304.591 157.588)" fill="#6c63ff" opacity="0.5"/><rect width="81.91" height="65.439" transform="translate(387.391 157.588)" fill="#fff"/><rect width="81.91" height="65.439" transform="translate(470.192 157.588)" fill="#6c63ff" opacity="0.2"/><rect width="81.91" height="65.439" transform="translate(552.993 157.588)" fill="#6c63ff" opacity="0.5"/><rect width="81.91" height="65.439" transform="translate(635.793 157.588)" fill="#fff"/><rect width="81.91" height="65.439" transform="translate(56.189 223.473)" fill="#fff"/><rect width="81.91" height="65.439" transform="translate(138.989 223.473)" fill="#fff"/><rect width="81.91" height="65.439" transform="translate(221.79 223.473)" fill="#6c63ff" opacity="0.2"/><rect width="81.91" height="65.439" transform="translate(304.591 223.473)" fill="#fff"/><rect width="81.91" height="65.439" transform="translate(387.391 223.473)" fill="#6c63ff" opacity="0.2"/><rect width="81.91" height="65.439" transform="translate(470.192 223.473)" fill="#fff"/><rect width="81.91" height="65.439" transform="translate(552.993 223.473)" fill="#fff"/><rect width="81.91" height="65.439" transform="translate(635.793 223.473)" fill="#6c63ff" opacity="0.2"/><rect width="81.91" height="65.439" transform="translate(56.189 289.357)" fill="#fff"/><rect width="81.91" height="65.439" transform="translate(138.989 289.357)" fill="#6c63ff" opacity="0.5"/><rect width="81.91" height="65.439" transform="translate(221.79 289.357)" fill="#6c63ff" opacity="0.5"/><rect width="81.91" height="65.439" transform="translate(304.591 289.357)" fill="#fff"/><rect width="81.91" height="65.439" transform="translate(387.391 289.357)" fill="#fff"/><rect width="81.91" height="65.439" transform="translate(470.192 289.357)" fill="#6c63ff" opacity="0.5"/><rect width="81.91" height="65.439" transform="translate(552.993 289.357)" fill="#fff"/><rect width="81.91" height="65.439" transform="translate(635.793 289.357)" fill="#6c63ff" opacity="0.5"/><rect width="81.91" height="65.439" transform="translate(56.189 356.132)" fill="#6c63ff" opacity="0.5"/><rect width="81.91" height="65.439" transform="translate(138.989 356.132)" fill="#6c63ff" opacity="0.2"/><rect width="81.91" height="65.439" transform="translate(221.79 356.132)" fill="#fff"/><rect width="81.91" height="65.439" transform="translate(304.591 356.132)" fill="#6c63ff" opacity="0.5"/><rect width="81.91" height="65.439" transform="translate(387.391 356.132)" fill="#6c63ff" opacity="0.2"/><rect width="81.91" height="65.439" transform="translate(470.192 356.132)" fill="#fff"/><rect width="81.91" height="65.439" transform="translate(552.993 356.132)" fill="#6c63ff" opacity="0.2"/><rect width="81.91" height="65.439" transform="translate(635.793 356.132)" fill="#fff"/><rect width="24.929" height="24.929" transform="translate(62.866 229.705)" fill="#69f0ae"/><rect width="24.929" height="24.929" transform="translate(310.378 97.936)" fill="#69f0ae"/><rect width="24.929" height="24.929" transform="translate(307.707 229.705)" fill="#69f0ae"/><rect width="24.929" height="24.929" transform="translate(392.288 292.918)" fill="#69f0ae"/><rect width="24.929" height="24.929" transform="translate(556.999 229.705)" fill="#69f0ae"/><circle cx="152.736" cy="152.736" r="152.736" transform="translate(0 282.19)" fill="url(#a)"/><circle cx="148.614" cy="148.614" r="148.614" transform="translate(4.122 286.312)" fill="#6c63ff"/><circle cx="120.746" cy="120.746" r="120.746" transform="translate(31.99 314.18)" fill="#fff"/><circle cx="7.221" cy="7.221" r="7.221" transform="translate(145.515 427.705)" fill="url(#d)"/><line x1="39.219" y2="92.879" transform="translate(153.769 342.047)" fill="#6c63ff"/><path d="M174.062,477.765l-4.452-1.5L209.675,382.5l4.452,2.092Z" transform="translate(-18.601 -41.949)" fill="url(#a)"/><rect width="100.821" height="3.098" transform="matrix(0.389, -0.921, 0.921, 0.389, 152.331, 434.294)" fill="#2196f3"/><line x2="25.802" y2="47.472" transform="translate(153.769 435.959)" fill="#6c63ff"/><path d="M196.43,538.358l-25.82-48.078,3.561-1.781,26.71,47.187Z" transform="translate(-18.711 -53.574)" fill="url(#a)"/><rect width="3.098" height="54.034" transform="translate(152.395 436.726) rotate(-28.52)" fill="#2196f3"/><circle cx="3.098" cy="3.098" r="3.098" transform="translate(262.131 434.926)" fill="#6c63ff"/><circle cx="4.024" cy="4.024" r="4.024" transform="translate(50.343 380.767) rotate(-60)" fill="url(#g)"/><circle cx="4.024" cy="4.024" r="4.024" transform="translate(51.372 492.376) rotate(-30)" fill="url(#h)"/><circle cx="4.024" cy="4.024" r="4.024" transform="translate(36.228 434)" fill="url(#i)"/><circle cx="4.024" cy="4.024" r="4.024" transform="translate(91.41 336.545) rotate(-30)" fill="url(#j)"/><circle cx="4.024" cy="4.024" r="4.024" transform="translate(147.14 322.102) rotate(-30)" fill="url(#k)"/><circle cx="4.024" cy="4.024" r="4.024" transform="translate(202.869 336.549) rotate(-30)" fill="url(#l)"/><circle cx="4.024" cy="4.024" r="4.024" transform="translate(244.148 377.832) rotate(-30)" fill="url(#m)"/><circle cx="4.024" cy="4.024" r="4.024" transform="translate(243.12 492.385) rotate(-30)" fill="url(#n)"/><circle cx="4.024" cy="4.024" r="4.024" transform="translate(200.804 532.63) rotate(-30)" fill="url(#o)"/><circle cx="4.024" cy="4.024" r="4.024" transform="translate(147.136 545.021) rotate(-30)" fill="url(#p)"/><circle cx="4.024" cy="4.024" r="4.024" transform="translate(93.475 532.635) rotate(-30)" fill="url(#q)"/><circle cx="3.098" cy="3.098" r="3.098" transform="translate(149.638 320.367)" fill="#69f0ae"/><circle cx="3.098" cy="3.098" r="3.098" transform="translate(204.236 339.528) rotate(-60)" fill="#69f0ae"/><circle cx="3.098" cy="3.098" r="3.098" transform="translate(245.028 378.065) rotate(-30)" fill="#69f0ae"/><circle cx="3.098" cy="3.098" r="3.098" transform="translate(244.384 494.98) rotate(-60)" fill="#69f0ae"/><circle cx="3.098" cy="3.098" r="3.098" transform="translate(202.069 532.758) rotate(-30)" fill="#69f0ae"/><circle cx="3.098" cy="3.098" r="3.098" transform="translate(92.773 337.273) rotate(-30)" fill="#69f0ae"/><circle cx="3.098" cy="3.098" r="3.098" transform="translate(51.986 380.332) rotate(-60)" fill="#69f0ae"/><circle cx="4.024" cy="4.024" r="4.024" transform="translate(259.636 436.659) rotate(-30)" fill="#69f0ae"/><circle cx="3.098" cy="3.098" r="3.098" transform="translate(52.636 492.715) rotate(-30)" fill="#69f0ae"/><circle cx="3.098" cy="3.098" r="3.098" transform="translate(94.942 535.026) rotate(-60)" fill="#69f0ae"/><circle cx="3.098" cy="3.098" r="3.098" transform="translate(37.153 434.926)" fill="#69f0ae"/><circle cx="3.098" cy="3.098" r="3.098" transform="translate(149.638 543.279)" fill="#69f0ae"/><path d="M224.318,604.826a120.764,120.764,0,0,1,225.5-60.079A120.764,120.764,0,1,0,234.112,652.529,120.338,120.338,0,0,1,224.318,604.826Z" transform="translate(-186.132 -158.548)" fill="#6c63ff" opacity="0.2"/><circle cx="5.164" cy="5.164" r="5.164" transform="translate(147.572 429.762)" fill="#69f0ae"/></svg>