<svg xmlns="http://www.w3.org/2000/svg" width="724.31" height="560.691" viewBox="0 0 724.31 560.691"><g transform="translate(0)"><path d="M422.6,195.138a267.019,267.019,0,0,1-87.591-14.7C297.24,167.377,266.3,149.365,243.048,126.9,199.065,84.409,163,78,140.5,80.114,116.146,82.4,101.969,94.87,101.828,95l-.969-1.08c.143-.129,14.613-12.884,39.415-15.238,14.544-1.379,29.753,1.024,45.207,7.145,19.271,7.633,38.979,21.1,58.576,40.036,23.1,22.316,53.859,40.217,91.424,53.2,68.962,23.843,146.685,18.07,213.24-15.838,22.036-11.228,43.815-18.891,64.733-22.778,26.377-4.9,51.391-3.765,74.354,3.38,50.462,15.7,84.929,14.866,104.958,11.405,21.61-3.735,31.415-11.21,31.511-11.285l.891,1.145c-.406.316-10.191,7.774-32.156,11.57-20.187,3.49-54.9,4.335-105.635-11.45-51.37-15.98-103.4,1.677-138,19.306a278.527,278.527,0,0,1-105.667,29.81Q433.117,195.137,422.6,195.138Z" transform="translate(-100.859 -67.644)" fill="#3f3d56"/><circle cx="14.705" cy="14.705" r="14.705" transform="translate(304.104 116.089)" fill="#6c63ff"/><circle cx="14.705" cy="14.705" r="14.705" transform="translate(531.929 57.319)" fill="#6c63ff"/><circle cx="14.705" cy="14.705" r="14.705" transform="translate(58.141 0)" fill="#6c63ff"/><path d="M685.6,494.353V636.436h22.34V506.863H797.3V636.435h22.34V352.269H797.3c-7.4,0-18.766,38.555-18.766,77.3,0,29.2,3.41,54.228,8.26,64.786Zm111.7,0h-.217c.073-.159.145-.327.217-.492Z" transform="translate(-261.338 -142.833)" fill="#3f3d56"/><path d="M787.145,255.342h0c-18.338,0-33.2,16.5-33.2,36.848v25.856h7.952l4.6-9.58-1.151,9.58h51.113l4.185-8.709-1.046,8.709h5.755v-20.3C825.353,274.326,808.247,255.342,787.145,255.342Z" transform="translate(-280.093 -116.232)" fill="#2f2e41"/><path d="M705,488.168l-20.386,8.664-70.843,57.592a20.852,20.852,0,0,0-4.587,11.213c-.51,6.626-21.916,41.283-14.271,45.87s35.167,18.348,36.7,9.174,9.684-48.418,9.684-48.418L709.591,511.1Z" transform="translate(-235.997 -180.13)" fill="#2f2e41"/><path d="M617.447,659.495l-8.664,25.483s9.174,9.684,4.587,17.838v28.031h-7.135l-2.039-14.78s-8.127,14.594-12.232,14.78c-8.605.391-25.646,3.452-26.155-1.135s12.9-9.059,12.9-9.059l14.271-39.244,6.116-23.954Z" transform="translate(-228.457 -226.59)" fill="#2f2e41"/><path d="M772.964,469.782s4.587,44.85-8.664,53-71.862,34.147-71.862,34.147,24.974,23.444,19.877,29.051-28.031,20.9-31.09,17.838S644.019,564.07,648.1,552.348s60.65-49.947,60.65-49.947l6.626-23.954,2.039-19.367,21.406-13.761Z" transform="translate(-250.952 -168.37)" fill="#2f2e41"/><circle cx="21.247" cy="21.247" r="21.247" transform="translate(477.414 154.496)" fill="#ffb9b9"/><path d="M801.586,317.825s-1.019,19.367,14.78,25.483-39.244,45.87-39.244,45.87V344.837s7.135-7.645,0-19.367Z" transform="translate(-286.455 -133.38)" fill="#ffb9b9"/><path d="M846.731,443.211l-4.077,19.877-12.232,68.295s10.193,29.051-3.568,28.541-7.135-31.6-7.135-31.6l7.135-56.573V449.837Z" transform="translate(-297.708 -167.791)" fill="#ffb9b9"/><path d="M724.381,429.865,719.794,447.7,698.9,498.16s-14.271,23.954-2.548,23.444,11.722-23.444,11.722-23.444l23.954-40.773V434.452Z" transform="translate(-263.019 -164.129)" fill="#ffb9b9"/><path d="M725.646,634.978l16.819,15.8s11.722-2.548,16.309,11.213,7.645,22.425,7.645,22.425l-6.116,3.568-7.645-10.7s-4.587,19.367-9.174,20.9-27.522,11.722-25.483,0l11.213-16.309s1.529-18.348-3.058-19.877-16.819-16.819-16.819-16.819Z" transform="translate(-267.851 -220.421)" fill="#2f2e41"/><path d="M799.442,491.688s-47.908-17.329-50.966-15.8a22.986,22.986,0,0,1-7.179,1.863l.043-6.96s15.8-5.606,24.464-2.039,35.167,19.367,35.167,19.367Z" transform="translate(-276.623 -174.475)" fill="#3f3d56"/><path d="M770.334,387.559s13.761-15.8,17.838-25.483A25.021,25.021,0,0,1,801.4,349.069s30.6,6.891,30.094,19.123-19.367,31.089-19.367,31.089,2.548,67.785-11.212,66.766a29.515,29.515,0,0,1-6.116-12.232c-1.529-7.135-48.928-14.78-48.928-14.78s-4.077,7.135-4.587,4.077,4.077-77.979,4.077-77.979l24.3-16.065Z" transform="translate(-276.608 -141.955)" fill="#d0cde1"/><path d="M850.8,368.3l.341.192a7.032,7.032,0,0,1,3.59,6.133l-.005,37.824a7.087,7.087,0,0,0,2.521,5.394c1.963,1.67,3.784,4.076.027,5.329-6.116,2.039-30.07,12.232-30.58,8.664s-1.529-7.645,0-7.645c1.2,0,8.329-36.547,14.06-52.173A7.033,7.033,0,0,1,850.8,368.3Z" transform="translate(-299.837 -146.985)" fill="#d0cde1"/><path d="M747.885,368.752l-7.135,2.039-8.155,35.167s-9.683,2.039-6.625,5.606,15.8,12.742,15.8,12.742Z" transform="translate(-272.252 -147.357)" fill="#d0cde1"/><path d="M798.662,266.68a17.414,17.414,0,0,0-13.74-7.012h-.652c-12.569,0-22.757,11.373-22.757,25.4h4.211l.68-5.177,1,5.177h24.978l2.093-4.38-.523,4.38h4.914q3.439,17.081-9.884,34.162h8.371l4.185-8.76-1.046,8.76h15.956l3.139-20.147C819.584,284,810.817,271.2,798.662,266.68Z" transform="translate(-282.171 -117.419)" fill="#2f2e41"/><path d="M210.657,533.92c5.362-11.674,9.132-39.345,9.132-71.632,0-42.836-12.564-85.465-20.749-85.465h-24.7V691.016h24.7V547.752h98.8V691.016h24.7V533.92Zm-11.616-.544c.08.183.16.368.24.544h-.24Z" transform="translate(-121.025 -149.572)" fill="#3f3d56"/><path d="M362.175,514.342s29.748,12.334,20.316,19.59-29.022-8.707-28.3-10.883-2.9-7.256-2.9-7.256Z" transform="translate(-169.589 -187.313)" fill="#9f616a"/><path d="M328.92,380.342l9.432,8.707,2.177,25.395,7.256,26.846s12.334,25.394,10.158,30.473,2.177,6.53,2.177,6.53l-16.688,6.53s-18.139-20.316-18.139-24.669S328.92,380.342,328.92,380.342Z" transform="translate(-162.453 -150.537)" fill="#575a88"/><path d="M328.92,380.342l9.432,8.707,2.177,25.395,7.256,26.846s12.334,25.394,10.158,30.473,2.177,6.53,2.177,6.53l-16.688,6.53s-18.139-20.316-18.139-24.669S328.92,380.342,328.92,380.342Z" transform="translate(-162.453 -150.537)" opacity="0.1"/><path d="M451.635,737.872s-3.628,16.688-4.353,18.139,13.786,6.53,13.786,6.53l17.413-12.335s-7.256-15.962-7.256-18.864Z" transform="translate(-195.925 -246.867)" fill="#575a88"/><path d="M303.048,516.342l5.079,5.8s105.206,13.06,107.382,33.376,17.413,116.089,8.707,118.991-31.2,13.786-31.2,7.981-14.511-85.616-11.609-100.127c0,0-125.521-15.962-128.423-34.1s2.9-26.12,2.9-26.12Z" transform="translate(-142.386 -187.862)" fill="#2f2e41"/><path d="M303.048,516.342l5.079,5.8s105.206,13.06,107.382,33.376,17.413,116.089,8.707,118.991-31.2,13.786-31.2,7.981-14.511-85.616-11.609-100.127c0,0-125.521-15.962-128.423-34.1s2.9-26.12,2.9-26.12Z" transform="translate(-142.386 -187.862)" opacity="0.1"/><path d="M448.262,759.6s-2.9-6.53-4.353-4.353-6.53,27.571-1.451,27.571,51.515,11.609,58.044,10.158,18.865.726,17.413-6.53-8.707-7.981-8.707-7.981-26.846-15.962-28.3-23.943-9.432-3.628-9.432-3.628v5.079S456.243,767.581,448.262,759.6Z" transform="translate(-194.003 -251.908)" fill="#2f2e41"/><path d="M258.048,302.531s5.079,24.669-5.8,26.846,13.786,16.688,13.786,16.688l15.962,8.707L293.6,343.162s-10.521-21.4-2.539-37.366S258.048,302.531,258.048,302.531Z" transform="translate(-141.644 -127.869)" fill="#9f616a"/><path d="M293.6,343.162l-11.609,11.609-15.962-8.707s-24.669-14.511-13.786-16.688c7-1.4,7.393-12.11,6.791-19.568a67.473,67.473,0,0,0-.987-7.277s40.994-12.7,33.013,3.265a27.833,27.833,0,0,0-2.5,7.807C286.119,327.947,293.6,343.162,293.6,343.162Z" transform="translate(-141.644 -127.869)" fill="#9f616a"/><path d="M265.433,702.984v16.688H293l2.177-6.53-2.9-17.413Z" transform="translate(-72.846 -190.938)" fill="#575a88"/><path d="M209.292,533.049s0,42.808,17.413,44.259,79.811,9.432,79.811,9.432,3.628,71.1,10.158,94.322.726,24.669,6.53,26.12,30.473-3.628,29.748-8.707-3.628-133.5-3.628-133.5,6.53-27.571-80.537-40.631Z" transform="translate(-130.618 -190.057)" fill="#2f2e41"/><path d="M365.643,780.9s-4.353-9.432-5.079-6.53-9.432,28.3-.726,30.473,36.278,13.786,54.417,13.06,20.316-1.451,20.316-1.451,5.079-7.256-1.451-11.609-33.376-29.748-34.827-32.65-12.334-5.079-12.334,0S370.722,787.426,365.643,780.9Z" transform="translate(-170.879 -257.241)" fill="#2f2e41"/><path d="M294.3,305.8a27.833,27.833,0,0,0-2.5,7.807c-3.613,2.184-6.029,1.625-10.564,1.625-6.726,0-9.44-8.6-13.786-13.06-.341-4.143-6.167.363-6.167.363S302.286,289.834,294.3,305.8Z" transform="translate(-144.889 -127.869)" opacity="0.1"/><circle cx="23.943" cy="23.943" r="23.943" transform="translate(110.599 139.11)" fill="#9f616a"/><path d="M303.119,377.738s-3.628,26.12-5.8,35.552-5.079,52.966-6.53,58.77-10.158,7.256-27.571,5.079a32.726,32.726,0,0,0-3.294-.247c-10.724-.341-22.993,3.671-34.348,6.82-6.53,1.814-12.763,3.338-18.226,3.584-8.271.377-10.695-8.794-10.412-18.719.268-9.236,2.888-19.14,5.333-22.637,4.4-6.3.073-62.84,1.7-81.487v-.007c.247-2.844.631-4.8,1.2-5.572,4.353-5.8,32.65-20.316,35.821-19.728s30.2,17.551,30.2,17.551c6.53,0,6.32-7.081,6.32-7.081s4.564,8.533,13.27,10.709S303.119,377.738,303.119,377.738Z" transform="translate(-127.22 -139.227)" fill="#575a88"/><path d="M273.914,521.984s46.737,1.488,38.55,7.041S268,539.656,267.273,532.4,273.914,521.984,273.914,521.984Z" transform="translate(-146.516 -189.41)" fill="#9f616a"/><path d="M259.928,486.282c.152,2.786-7.343,9.062-9.766,13.307-1.342,2.351-11.732-.747-24.582-6.486a252.051,252.051,0,0,1-28.638-15.135c.268-9.236,2.888-19.14,5.333-22.637,4.4-6.3.073-62.84,1.7-81.487v-.007a8.038,8.038,0,0,1,1.2-.493h8.707c29.748,13.786-4.353,73.281-4.353,73.281s44.985,37,49.338,38.455A1.3,1.3,0,0,1,259.928,486.282Z" transform="translate(-127.228 -148.616)" opacity="0.1"/><path d="M204.735,367.342h-8.707s-7.981,2.177-14.511,16.688-30.473,59.5-9.432,76.909,66.026,37.729,68.928,32.65,13.06-13.06,8.707-14.511-49.338-38.455-49.338-38.455S234.483,381.128,204.735,367.342Z" transform="translate(-118.079 -146.97)" fill="#575a88"/><path d="M269.562,263.653s1.051-14.546,14.013-8.615,12.117-10.417,8.2-13.305-3.793-3.6-18.12-1.671-42.142,5.207-33.148,34.014,17.139,21.4,17.139,21.4-7.149-25.922.095-20.984l7.243,4.939,3.822-.81Z" transform="translate(-138.703 -111.742)" fill="#2f2e41"/><path d="M853.951,552.691c0-13.1-97.319-23.713-217.367-23.713s-217.367,10.617-217.367,23.713c0,5.076,14.627,9.778,39.521,13.635V728.56h11.856V568c39.872,5.14,99.432,8.4,165.989,8.4,67.108,0,127.1-3.318,166.977-8.532V728.56h11.856V566.17C839.711,562.343,853.951,557.7,853.951,552.691Z" transform="translate(-188.23 -191.33)" fill="#3f3d56"/><ellipse cx="44.259" cy="10.883" rx="44.259" ry="10.883" transform="translate(431.33 340.089)" fill="#f2f2f2"/><ellipse cx="36.278" cy="8.921" rx="36.278" ry="8.921" transform="translate(439.311 342.051)" fill="#d0cde1"/><ellipse cx="44.259" cy="10.883" rx="44.259" ry="10.883" transform="translate(266.628 348.795)" fill="#f2f2f2"/><ellipse cx="36.278" cy="8.921" rx="36.278" ry="8.921" transform="translate(274.609 350.758)" fill="#d0cde1"/><ellipse cx="21.099" cy="3.331" rx="21.099" ry="3.331" transform="translate(453.459 343.541)" fill="#9f616a"/><ellipse cx="6.663" cy="3.609" rx="6.663" ry="3.609" transform="translate(456.652 338.404)" fill="#6c63ff"/><ellipse cx="6.663" cy="3.609" rx="6.663" ry="3.609" transform="translate(454.153 338.404)" fill="#6c63ff"/><ellipse cx="6.663" cy="3.609" rx="6.663" ry="3.609" transform="translate(483.304 339.237)" fill="#6c63ff"/><ellipse cx="6.663" cy="3.609" rx="6.663" ry="3.609" transform="translate(468.035 338.404)" fill="#6c63ff"/><ellipse cx="6.663" cy="3.609" rx="6.663" ry="3.609" transform="translate(479.417 338.404)" fill="#6c63ff"/><path d="M767.329,525.413q-18.063,6.13-40.533,0v-.562A16.557,16.557,0,0,1,742.519,508.3a104,104,0,0,1,10.72.014,14.961,14.961,0,0,1,14.091,14.973Z" transform="translate(-272.643 -185.62)" fill="#3f3d56"/><path d="M761.47,549.806a133.173,133.173,0,0,1-26.766,0,8.552,8.552,0,0,1-7.716-8.5h42.2A8.552,8.552,0,0,1,761.47,549.806Z" transform="translate(-272.696 -194.714)" fill="#3f3d56"/><path d="M744.766,515.249a7.94,7.94,0,0,1-6.108,0A7.94,7.94,0,0,1,744.766,515.249Z" transform="translate(-275.899 -187.394)" fill="#d0cde1"/><path d="M753.184,518.693a7.94,7.94,0,0,1-6.108,0,7.94,7.94,0,0,1,6.108,0Z" transform="translate(-278.209 -188.339)" fill="#d0cde1"/><path d="M753.95,512.571a7.94,7.94,0,0,1-6.108,0A7.94,7.94,0,0,1,753.95,512.571Z" transform="translate(-278.419 -186.659)" fill="#d0cde1"/><path d="M769.638,512.571a7.94,7.94,0,0,1-6.108,0A7.94,7.94,0,0,1,769.638,512.571Z" transform="translate(-282.725 -186.659)" fill="#d0cde1"/><path d="M765.429,516.015a7.94,7.94,0,0,1-6.108,0,7.94,7.94,0,0,1,6.108,0Z" transform="translate(-281.569 -187.604)" fill="#d0cde1"/><ellipse cx="21.099" cy="3.331" rx="21.099" ry="3.331" transform="translate(289.483 352.248)" fill="#9f616a"/><ellipse cx="6.663" cy="3.609" rx="6.663" ry="3.609" transform="translate(292.676 347.111)" fill="#6c63ff"/><ellipse cx="6.663" cy="3.609" rx="6.663" ry="3.609" transform="translate(290.177 347.111)" fill="#6c63ff"/><ellipse cx="6.663" cy="3.609" rx="6.663" ry="3.609" transform="translate(319.328 347.944)" fill="#6c63ff"/><ellipse cx="6.663" cy="3.609" rx="6.663" ry="3.609" transform="translate(304.059 347.111)" fill="#6c63ff"/><ellipse cx="6.663" cy="3.609" rx="6.663" ry="3.609" transform="translate(315.441 347.111)" fill="#6c63ff"/><path d="M541.329,537.413q-18.063,6.13-40.533,0v-.562A16.557,16.557,0,0,1,516.519,520.3a103.969,103.969,0,0,1,10.72.014,14.961,14.961,0,0,1,14.091,14.973Z" transform="translate(-210.619 -188.913)" fill="#3f3d56"/><path d="M535.47,561.806a133.182,133.182,0,0,1-26.766,0,8.552,8.552,0,0,1-7.716-8.5h42.2A8.552,8.552,0,0,1,535.47,561.806Z" transform="translate(-210.672 -198.007)" fill="#3f3d56"/><path d="M518.766,527.249a7.94,7.94,0,0,1-6.108,0,7.94,7.94,0,0,1,6.108,0Z" transform="translate(-213.874 -190.688)" fill="#d0cde1"/><path d="M527.184,530.693a7.94,7.94,0,0,1-6.108,0,7.94,7.94,0,0,1,6.108,0Z" transform="translate(-216.185 -191.633)" fill="#d0cde1"/><path d="M527.95,524.571a7.94,7.94,0,0,1-6.108,0A7.94,7.94,0,0,1,527.95,524.571Z" transform="translate(-216.395 -189.953)" fill="#d0cde1"/><path d="M543.638,524.571a7.94,7.94,0,0,1-6.108,0A7.94,7.94,0,0,1,543.638,524.571Z" transform="translate(-220.7 -189.953)" fill="#d0cde1"/><path d="M539.429,528.015a7.94,7.94,0,0,1-6.108,0A7.94,7.94,0,0,1,539.429,528.015Z" transform="translate(-219.545 -190.898)" fill="#d0cde1"/><path d="M800.722,543.277l.1,2.247.13,2.915s-13.388.757-16.085,3.606a1.649,1.649,0,0,0-.172.2l-5.362-1.173-.013-2.642.218-.119.115-.061A48.808,48.808,0,0,1,800.722,543.277Z" transform="translate(-287.058 -195.254)" fill="#6c63ff"/><path d="M800.8,543.277l.1,2.247c-5.937.184-17.172,3.722-17.172,3.722l-4.113-.938a48.672,48.672,0,0,1,21.183-5.032Z" transform="translate(-287.141 -195.254)" opacity="0.1"/><path d="M779.654,550.13l4,1,1.217,2.8a1.632,1.632,0,0,0-.172.2l-5.362-1.174-.013-2.642.218-.119Z" transform="translate(-287.058 -197.135)" fill="#fff" opacity="0.1"/><path d="M577.722,556.277l.1,2.247.13,2.915s-13.388.757-16.085,3.606a1.633,1.633,0,0,0-.172.2l-5.363-1.173-.013-2.642.218-.119.115-.061A48.809,48.809,0,0,1,577.722,556.277Z" transform="translate(-225.858 -198.822)" fill="#6c63ff"/><path d="M577.8,556.277l.1,2.247c-5.937.184-17.172,3.722-17.172,3.722l-4.113-.938a48.673,48.673,0,0,1,21.183-5.032Z" transform="translate(-225.94 -198.822)" opacity="0.1"/><path d="M556.654,563.13l4,1,1.217,2.8a1.633,1.633,0,0,0-.172.2l-5.362-1.174-.013-2.642.218-.119Z" transform="translate(-225.858 -200.702)" fill="#fff" opacity="0.1"/><path d="M911.588,438.329a13.391,13.391,0,0,0-3.953-2.731V407.406a1.246,1.246,0,0,0-1.246-1.246H899.41a1.246,1.246,0,0,0-1.246,1.246v27.652a12.652,12.652,0,0,0-8.669,12.005v60.476a5.542,5.542,0,0,0,5.542,5.542h14.95a5.516,5.516,0,0,0,5.516-5.516V447.775A13.317,13.317,0,0,0,911.588,438.329Z" transform="translate(-317.295 -157.623)" fill="#3f3d56"/><rect width="26.008" height="34.356" transform="translate(572.2 298.305)" fill="#6c63ff"/><path d="M911.264,408.086H910.7v-.68a1.246,1.246,0,0,0-1.246-1.246h-6.979a1.246,1.246,0,0,0-1.246,1.246v.68h-.562v2.89h.562v14.77H910.7v-14.77h.562Z" transform="translate(-320.361 -157.623)" fill="#6c63ff"/><path d="M622.1,483.139c-.688-1.469-1.231-2.508-1.422-2.866-11.674,2.881-19.463.446-20.692.016a68.637,68.637,0,0,0-5.866,15.337c-1.369,6.271-.574,10.474,2.362,12.494l.087.062.019.013c3.241,2.136,6.334,4.028,9.19,5.622q.577.321,1.089.6l.036.02.026.033a17.371,17.371,0,0,1,1.093,1.543,6.067,6.067,0,0,1,1.109,3v31.144l-.2,0c-7.447.152-12.056,1.414-12.056,2.5,0,1.188,5.527,2.511,13.458,2.511s13.458-1.323,13.458-2.511c0-1.066-4.531-2.322-11.852-2.491l-.2,0,.184-28.808a12.705,12.705,0,0,1,1.325-5.621c.148-.294.307-.579.472-.848.133-.217.274-.428.418-.627l.026-.037.04-.022q.55-.3,1.168-.651l.048-.026c2.7-1.527,5.616-3.317,8.658-5.322,2.716-1.79,3.662-5.409,2.811-10.756A57.418,57.418,0,0,0,622.1,483.139Z" transform="translate(-236.054 -177.963)" fill="#d0cde1"/><path d="M623.38,513.467c-3.189,2.1-5.822,3.679-7.836,4.815h0a45.86,45.86,0,0,0-8.809.247c-2.064-1.152-4.849-2.8-8.275-5.062-.032-.022-.065-.043-.1-.067v0c-3.142-2.162-3.22-6.74-2.2-11.421a27.692,27.692,0,0,1,12.318,1.828c6.6,2.357,13.5,1.024,17.505-.188C626.642,507.747,626.242,511.58,623.38,513.467Z" transform="translate(-236.631 -183.888)" fill="#6c63ff"/><circle cx="0.903" cy="0.903" r="0.903" transform="translate(366.883 314.59)" fill="#6c63ff"/><circle cx="0.903" cy="0.903" r="0.903" transform="translate(364.355 322.897)" fill="#fff"/><circle cx="0.542" cy="0.542" r="0.542" transform="translate(369.411 317.118)" fill="#6c63ff"/><circle cx="0.542" cy="0.542" r="0.542" transform="translate(371.578 327.412)" fill="#fff"/><circle cx="0.542" cy="0.542" r="0.542" transform="translate(367.786 327.954)" fill="#fff"/><circle cx="0.542" cy="0.542" r="0.542" transform="translate(378.802 309.894)" fill="#6c63ff"/><path d="M680.484,442.674c-.688-1.469-1.232-2.508-1.422-2.866-11.674,2.881-19.463.446-20.692.016a68.627,68.627,0,0,0-5.866,15.337c-1.369,6.271-.575,10.474,2.362,12.494l.087.062.019.013c3.242,2.136,6.334,4.028,9.19,5.622q.577.321,1.089.6l.036.02.026.033a17.394,17.394,0,0,1,1.093,1.543,6.066,6.066,0,0,1,1.109,3v31.144l-.2,0c-7.447.152-12.056,1.414-12.056,2.5,0,1.188,5.527,2.511,13.458,2.511s13.458-1.323,13.458-2.511c0-1.066-4.531-2.322-11.851-2.491l-.2,0,.184-28.808a12.7,12.7,0,0,1,1.325-5.621c.148-.294.307-.579.472-.848.133-.217.274-.428.418-.627l.026-.037.04-.022q.55-.3,1.168-.651l.048-.026c2.7-1.527,5.616-3.317,8.658-5.322,2.716-1.79,3.661-5.409,2.811-10.756A57.473,57.473,0,0,0,680.484,442.674Z" transform="translate(-252.076 -166.858)" fill="#d0cde1"/><path d="M681.758,473c-3.189,2.1-5.822,3.679-7.836,4.815h0a45.86,45.86,0,0,0-8.809.247c-2.064-1.152-4.849-2.8-8.275-5.062-.032-.022-.065-.043-.1-.067v0c-3.142-2.162-3.22-6.74-2.2-11.421a27.692,27.692,0,0,1,12.318,1.828c6.6,2.357,13.5,1.024,17.505-.188C685.021,467.281,684.62,471.114,681.758,473Z" transform="translate(-252.652 -172.782)" fill="#6c63ff"/><circle cx="0.903" cy="0.903" r="0.903" transform="translate(409.24 285.23)" fill="#6c63ff"/><circle cx="0.903" cy="0.903" r="0.903" transform="translate(406.711 293.537)" fill="#fff"/><circle cx="0.542" cy="0.542" r="0.542" transform="translate(411.768 287.758)" fill="#6c63ff"/><circle cx="0.542" cy="0.542" r="0.542" transform="translate(413.935 298.052)" fill="#fff"/><circle cx="0.542" cy="0.542" r="0.542" transform="translate(410.143 298.594)" fill="#fff"/><circle cx="0.542" cy="0.542" r="0.542" transform="translate(421.159 280.534)" fill="#6c63ff"/></g></svg>